<svg xmlns="http://www.w3.org/2000/svg" version="1.1" xmlns:xlink="http://www.w3.org/1999/xlink" xmlns:svgjs="http://svgjs.dev/svgjs" viewBox="0 0 1920 1080"><rect width="1920" height="1080" fill="#525252" data-darkreader-inline-fill="" style="--darkreader-inline-fill:#4e5557;"></rect><g transform="matrix(1.15,0,0,1.15,-137.94855194091792,-81)"><path d="M0,-1080C-6.484322423453231,-1009.927029058499,-25.551036153955074,-805.9336286225756,-38.905934540719386,-659.5621743509937C-52.2608329274837,-513.1907200794118,-85.3665917248283,-370.1451829032187,-80.12939032058586,-201.77127437050825C-74.89218891634341,-33.39736583779782,-32.72244650984473,181.13793525968006,-7.482726115264768,350.6812768452688C17.756994279315194,520.2246184308576,65.12791736990867,665.8365943799365,71.30893204689391,815.4887751430243C77.48994672387916,965.1409559061121,21.931091158475095,1116.3419946770318,29.603361946646658,1248.5943614237954C37.275632734818224,1380.846728170559,122.27645043369775,1457.1020358609042,117.3425567759233,1609.002975623605C112.40866311814885,1760.9039153863057,19.557092795987217,2068.1671626039342,0,2160L 1920 2160 L 1920 -1080 Z" fill="url(&quot;#SvgjsLinearGradient1006&quot;)"></path><path d="M320,-1080C330.24114024309904,-1001.0080280393154,385.30524972398746,-746.0608340287229,381.4468414585944,-606.048168235892C377.58843319320135,-466.0355024430612,289.4328785477259,-380.65151857889043,296.8495504076415,-239.92400524301513C304.2662222675571,-99.1964919071398,441.0387308543173,101.17317872099571,425.946872618088,238.31691177935988C410.85501438185867,375.4606448377241,221.92408745034336,485.9839681476956,206.29840099026558,582.93839310717C190.6727145301878,679.8928180666444,329.7574634636111,702.2771900941972,332.19275385762126,820.0434615362062C334.6280442516314,937.8097329782153,227.109158314733,1133.2038963992757,220.9101433543267,1289.5360217592245C214.71112839392038,1445.8681471191733,278.4836879875712,1612.9588839891035,294.9986640951834,1758.0362136958995C311.5136402027956,1903.1135434026955,315.83311068253056,2093.0060356159834,320,2160L 1920 2160 L 1920 -1080 Z" fill="url(&quot;#SvgjsLinearGradient1007&quot;)"></path><path d="M640,-1080C656.1203070881968,-1022.2003631728957,715.4295651029838,-870.4657778924769,736.7218425291805,-733.2021790373738C758.0141199553773,-595.9385801822706,767.5050140432504,-415.45128142366514,767.7536645571806,-256.41840686938076C768.0023150711108,-97.38553231509641,777.6047786926828,60.98746018972935,738.213745612762,220.99506828833233C698.8227125328411,381.0026763869353,548.5143675519708,554.7088141966093,531.4074660776555,703.6272417222372C514.3005646033401,852.545669247865,604.0554717923608,934.6870821100462,635.5723367668701,1114.5056334420992C667.0892017413794,1294.3241847741524,719.770712052523,1608.289488621572,720.5086559247113,1782.5385497145555C721.2465997968997,1956.787610807539,653.4181093207852,2097.089758285759,640,2160L 1920 2160 L 1920 -1080 Z" fill="url(&quot;#SvgjsLinearGradient1008&quot;)"></path><path d="M960,-1080C941.8423425789784,-1004.2496862674334,863.3209453081113,-779.7399641135029,851.0540554738707,-625.4981176046C838.7871656396301,-471.2562710956971,850.9771909061931,-319.479615909602,886.3986609945566,-154.5489209465827C921.8201310829202,10.381774016436538,1046.8874187102454,205.9818844724708,1063.5828760040522,364.08605217351555C1080.278333297859,522.1902198745603,1004.914691544333,640.3456133241567,986.5714047573978,794.0760852596858C968.2281179704626,947.8065571952149,958.7468851303009,1116.9098158913052,953.5231552824407,1286.4688837866897C948.2994254345805,1456.0279516820742,954.1495515506433,1665.8419732631073,955.2290256702365,1811.4304926319924C956.3084997898297,1957.0190120008774,959.2048376117061,2101.905082105332,960,2160L 1920 2160 L 1920 -1080 Z" fill="url(&quot;#SvgjsLinearGradient1009&quot;)"></path><path d="M1280,-1080C1263.6583761122733,-974.9782326658753,1197.8104256270228,-637.5018491038193,1181.95025667364,-449.86939599525175C1166.0900877202573,-262.23694288668423,1148.1933134403419,-126.14034685348531,1184.8389862797035,45.79471865140522C1221.484659119065,217.72978415629575,1390.034634508283,404.29339585295327,1401.8242937098096,581.7409970340914C1413.6139529113361,759.1885982152295,1266.1182225796265,957.0988550324694,1255.5769414888625,1110.4803257382341C1245.0356603980986,1263.8617964439989,1334.50609741337,1327.1098755583853,1338.5766071652263,1502.0298212686796C1342.6471169170825,1676.949766978974,1289.762767860871,2050.33830354478,1280,2160L 1920 2160 L 1920 -1080 Z" fill="url(&quot;#SvgjsLinearGradient1010&quot;)"></path><path d="M1600,-1080C1586.042028645727,-1016.4520177623316,1500.5049611641562,-843.7654260756585,1516.2521718743615,-698.7121065739893C1531.9993825845668,-553.6587870723201,1660.5496785590813,-342.40373296999826,1694.4832642612312,-209.680082989985C1728.416849963381,-76.95643300997173,1739.3301002423655,-28.928875152052797,1719.8536860872614,97.62979330609028C1700.3772719321573,224.18846176423335,1580.8561207258394,426.14332057079196,1577.6247793306068,549.6719277588734C1574.393437935374,673.2005349469548,1692.559618429159,693.1547712839009,1700.4656377158658,838.8014364345788C1708.3716570025726,984.4481015852567,1620.5855447591534,1278.621936484451,1625.0608950508486,1423.5519186629406C1629.5362453425437,1568.4819008414302,1731.494555307845,1585.6399826160057,1727.317739466037,1708.3813295055156C1723.140923624229,1831.1226763950256,1621.2196232443396,2084.730221584253,1600,2160L 1920 2160 L 1920 -1080 Z" fill="url(&quot;#SvgjsLinearGradient1011&quot;)"></path></g><defs><linearGradient x1="0.1" y1="0" x2="0" y2="1" id="SvgjsLinearGradient1006"><stop stop-color="#525252" offset="0" data-darkreader-inline-stopcolor="" style="--darkreader-inline-stopcolor:#4e5557;"></stop><stop stop-color="#525252" offset="0" data-darkreader-inline-stopcolor="" style="--darkreader-inline-stopcolor:#4e5557;"></stop></linearGradient><linearGradient x1="0.1" y1="0" x2="0" y2="1" id="SvgjsLinearGradient1007"><stop stop-color="#6f6f6f" offset="0" data-darkreader-inline-stopcolor="" style="--darkreader-inline-stopcolor:#62696d;"></stop><stop stop-color="#6f6f6f" offset="0.16666666666666666" data-darkreader-inline-stopcolor="" style="--darkreader-inline-stopcolor:#62696d;"></stop></linearGradient><linearGradient x1="0.1" y1="0" x2="0" y2="1" id="SvgjsLinearGradient1008"><stop stop-color="#8c8c8c" offset="0" data-darkreader-inline-stopcolor="" style="--darkreader-inline-stopcolor:#847e75;"></stop><stop stop-color="#8c8c8c" offset="0.3333333333333333" data-darkreader-inline-stopcolor="" style="--darkreader-inline-stopcolor:#847e75;"></stop></linearGradient><linearGradient x1="0.1" y1="0" x2="0" y2="1" id="SvgjsLinearGradient1009"><stop stop-color="#a8a8a8" offset="0" data-darkreader-inline-stopcolor="" style="--darkreader-inline-stopcolor:#97918a;"></stop><stop stop-color="#a8a8a8" offset="0.5" data-darkreader-inline-stopcolor="" style="--darkreader-inline-stopcolor:#97918a;"></stop></linearGradient><linearGradient x1="0.1" y1="0" x2="0" y2="1" id="SvgjsLinearGradient1010"><stop stop-color="#c5c5c5" offset="0" data-darkreader-inline-stopcolor="" style="--darkreader-inline-stopcolor:#aaa6a0;"></stop><stop stop-color="#c5c5c5" offset="0.6666666666666666" data-darkreader-inline-stopcolor="" style="--darkreader-inline-stopcolor:#aaa6a0;"></stop></linearGradient><linearGradient x1="0.1" y1="0" x2="0" y2="1" id="SvgjsLinearGradient1011"><stop stop-color="#e2e2e2" offset="0" data-darkreader-inline-stopcolor="" style="--darkreader-inline-stopcolor:#bebab6;"></stop><stop stop-color="#e2e2e2" offset="0.8333333333333334" data-darkreader-inline-stopcolor="" style="--darkreader-inline-stopcolor:#bebab6;"></stop></linearGradient></defs></svg>