<svg xmlns="http://www.w3.org/2000/svg" version="1.1" xmlns:xlink="http://www.w3.org/1999/xlink" xmlns:svgjs="http://svgjs.dev/svgjs" viewBox="0 0 1920 1080"><rect width="1920" height="1080" fill="#ffae9a"></rect><g transform="matrix(1.15,0,0,1.15,-140.41622486114488,-81)"><path d="M0,-1080C-7.961838044790103,-973.8267720113685,-46.944527658827546,-677.4726248618982,-47.77102826874062,-442.9606320682108C-48.5975288786537,-208.44863927452346,-8.472528017833534,99.94204733808655,-4.959003659478469,327.0719567621243C-1.4454793011234037,554.201866186162,-39.877360392250615,736.1112315198687,-26.689882118610228,919.8188244760156C-13.50240384496984,1103.5264174321626,69.71755229592883,1222.620651911675,74.16586598236387,1429.3175144990057C78.61417966879891,1636.0143770863365,12.360977663727311,2038.2195857498343,0,2160L 1920 2160 L 1920 -1080 Z" fill="url(&quot;#SvgjsLinearGradient1012&quot;)"></path><path d="M320,-1080C326.23977505382453,-972.8435587144265,350.6275212423853,-660.1834656850169,357.43865032294724,-437.0613522865594C364.2497794035092,-213.9392388881018,347.4106777808864,27.13042154191396,360.8667744833717,258.7326803907455C374.3228711858571,490.334939239577,436.86018663126987,760.9240118742326,438.17523053785936,952.5522008064297C439.49027444444886,1144.180389738627,388.4529096792185,1207.2605141183333,368.75703792290864,1408.5018139839283C349.06116616659875,1609.7431138495233,328.12617298715145,2034.7503023306547,320,2160L 1920 2160 L 1920 -1080 Z" fill="url(&quot;#SvgjsLinearGradient1013&quot;)"></path><path d="M640,-1080C658.9804737740175,-986.5101823670211,773.8063837647369,-701.0653568186691,753.8828426441049,-519.0610942021269C733.959301523473,-337.05683158558475,537.1035182246795,-153.9046417617933,520.4587532762082,12.025575699252897C503.8139883277368,177.9557931602991,654.8424014657245,280.40536467649576,654.0142529532767,476.52021056415026C653.1861044408289,672.6350564518048,503.84923112928294,1015.4347901140437,515.4898622015214,1188.71465102518C527.1304932737598,1361.9945119363165,703.1063497536278,1354.3184845351652,723.8580393867076,1516.1993760309686C744.6097290197873,1678.0802675267719,653.9763398977846,2052.6998960051615,640,2160L 1920 2160 L 1920 -1080 Z" fill="url(&quot;#SvgjsLinearGradient1014&quot;)"></path><path d="M960,-1080C978.3249623329901,-931.0148915084475,1083.7514602219621,-444.53152214415934,1069.949773997941,-186.08934905068486C1056.14808777392,72.35282404278962,901.5344255823254,198.47694045544745,877.1898826558737,470.6530385608469C852.845339729422,742.8291366662463,910.0808302152099,1165.409412675186,923.8825164392309,1446.9672395817117C937.684202663252,1728.5250664882374,953.9804194065384,2041.161206596952,960,2160L 1920 2160 L 1920 -1080 Z" fill="url(&quot;#SvgjsLinearGradient1015&quot;)"></path><path d="M1280,-1080C1295.3977957256795,-991.9048430968296,1386.354731041054,-762.2224610219519,1372.3867743540768,-551.429058580978C1358.4188176670996,-340.63565614000413,1190.991740174296,-61.88074802281483,1196.1922598781368,184.76041464584353C1201.3927795819777,431.4015773145019,1399.9882206939044,722.017031487955,1403.5898925771228,928.4179174309721C1407.1915644603412,1134.8188033739893,1238.4006066069676,1217.902049875775,1217.8022911774472,1423.1657303039462C1197.2039757479267,1628.4294107321175,1269.6337151962412,2037.194288383991,1280,2160L 1920 2160 L 1920 -1080 Z" fill="url(&quot;#SvgjsLinearGradient1016&quot;)"></path><path d="M1600,-1080C1617.0743559291902,-948.0942758960981,1696.2582989630503,-579.8369831887414,1702.4461355751414,-288.5656553765887C1708.6339721872325,2.705672435564054,1660.9614919019639,381.13679221657077,1637.1270196725472,667.6279668729167C1613.2925474431306,954.1191415292626,1565.6271388107332,1181.6527203736396,1559.439302198642,1430.3813925614868C1553.251465586551,1679.110064749334,1593.2398836997736,2038.3968987602477,1600,2160L 1920 2160 L 1920 -1080 Z" fill="url(&quot;#SvgjsLinearGradient1017&quot;)"></path></g><defs><linearGradient x1="0.1" y1="0" x2="0" y2="1" id="SvgjsLinearGradient1012"><stop stop-color="#ffae9a" offset="0"></stop><stop stop-color="#ff9d9a" offset="0"></stop></linearGradient><linearGradient x1="0.1" y1="0" x2="0" y2="1" id="SvgjsLinearGradient1013"><stop stop-color="#ffbeae" offset="0"></stop><stop stop-color="#ffb0ae" offset="0.16666666666666666"></stop></linearGradient><linearGradient x1="0.1" y1="0" x2="0" y2="1" id="SvgjsLinearGradient1014"><stop stop-color="#ffcec1" offset="0"></stop><stop stop-color="#ffc4c1" offset="0.3333333333333333"></stop></linearGradient><linearGradient x1="0.1" y1="0" x2="0" y2="1" id="SvgjsLinearGradient1015"><stop stop-color="#ffddd5" offset="0"></stop><stop stop-color="#ffd6d5" offset="0.5"></stop></linearGradient><linearGradient x1="0.1" y1="0" x2="0" y2="1" id="SvgjsLinearGradient1016"><stop stop-color="#ffede9" offset="0"></stop><stop stop-color="#ffe9e9" offset="0.6666666666666666"></stop></linearGradient><linearGradient x1="0.1" y1="0" x2="0" y2="1" id="SvgjsLinearGradient1017"><stop stop-color="#fffdfc" offset="0"></stop><stop stop-color="#fffcfc" offset="0.8333333333333334"></stop></linearGradient></defs></svg>