<svg xmlns="http://www.w3.org/2000/svg" version="1.1" xmlns:xlink="http://www.w3.org/1999/xlink" xmlns:svgjs="http://svgjs.dev/svgjs" viewBox="0 0 1920 1080"><rect width="1920" height="1080" fill="#7e697a"></rect><g transform="matrix(1.15,0,0,1.15,-140.28432769775372,-81)"><path d="M0,-1080C0.06130547844147335,-940.6669867743842,1.4513728161847912,-493.6062393669357,0.36783287064884007,-244.00192064630534C-0.715707074887111,5.602398074325066,1.8130962117736917,131.75129056599468,-6.501239673215707,417.62591232378225C-14.815575558205106,703.5005340815699,-50.60172238482351,1180.8501286210505,-49.51818243928756,1471.2458099004202C-48.4346424937516,1761.64149117979,-8.253030406547927,2045.2076349834033,0,2160L 1920 2160 L 1920 -1080 Z" fill="url(&quot;#SvgjsLinearGradient1177&quot;)"></path><path d="M240,-1080C261.3218465033138,-1000.7320429177335,387.11516359834025,-755.1163309437121,367.93107901988276,-604.3922575064009C348.7469944414253,-453.66818406908976,143.27836926351023,-308.53400802233205,124.89549252925497,-175.65555937613294C106.51261579499969,-42.77711072993381,222.75600710349394,44.34442048717554,257.6338186143511,192.8784343707939C292.5116301252083,341.4124482544123,344.4187001452778,522.9598313071025,334.162361594398,715.5485239255772C323.90602304351825,908.137216544052,205.61185101270482,1175.4119834833177,196.09578730907236,1348.4105900816426C186.5797236054399,1521.4091966799674,269.74861059078205,1618.2752618624666,277.06597937260335,1753.540163515526C284.38334815442465,1888.8050651685855,246.17766322876722,2092.2566939192543,240,2160L 1920 2160 L 1920 -1080 Z" fill="url(&quot;#SvgjsLinearGradient1178&quot;)"></path><path d="M480,-1080C461.4004718501975,-1012.8167900098181,386.1606208115443,-802.7405387158783,368.4028311011851,-676.9007400589087C350.6450413908259,-551.0609414019391,347.59843894796643,-440.9291054073175,373.4532617378449,-324.96120805818265C399.3080845277234,-208.99331070904782,486.2245633926708,-137.2425314273314,523.5317678404562,18.906644035900285C560.8389722882415,175.05581949913196,588.2184557045642,469.89697871642556,597.2964884245569,611.9338447212074C606.3745211445495,753.9707107259892,589.138600103878,764.4063924222679,577.999964160412,871.127840064591C566.8613282169459,977.8492877069142,527.8465619053964,1124.4913064533341,530.4646727637603,1252.262530575146C533.0827836221242,1380.0337546969579,602.1194081045556,1486.465606557987,593.7086293105956,1637.7551847954628C585.2978505166355,1789.0447630329386,498.9514382184326,2072.9591974659106,480,2160L 1920 2160 L 1920 -1080 Z" fill="url(&quot;#SvgjsLinearGradient1179&quot;)"></path><path d="M720,-1080C706.8733323117611,-985.0214595778366,630.7446661440692,-646.6943497399975,641.2399938705669,-510.1287574670197C651.7353215970645,-373.56316519404186,766.6986959543601,-396.0697776175634,782.9719663589856,-260.60644636213283C799.245236763611,-125.14311510670228,737.7906840885141,116.73162919232823,738.8796162983198,302.6512300655636C739.9685485081254,488.57083093879896,774.8412035483246,697.0255210088076,789.5055596178197,854.9111588772794C804.1699156873148,1012.7967967457512,846.6372930767611,1096.04459447031,826.8657527152903,1249.9650572763946C807.0942123538196,1403.8855200824794,688.6872762348764,1626.7614452598539,670.8763174489948,1778.433935713788C653.0653586631131,1930.1064261677222,711.8127195748325,2096.405655952298,720,2160L 1920 2160 L 1920 -1080 Z" fill="url(&quot;#SvgjsLinearGradient1180&quot;)"></path><path d="M960,-1080C970.8612902968003,-983.7122542422306,1004.0186298252054,-682.2400840004913,1025.1677417808019,-502.2735254533838C1046.3168537363983,-322.30696690627633,1085.152572077493,-155.49576655224067,1086.8946717335791,-0.20064871735530687C1088.6367713896652,155.09446911753005,1035.5121623145901,230.2703343583336,1035.6203397173183,429.4971815559284C1035.7285171200465,628.7240287535233,1080.0904704384384,983.3981907553815,1087.5437361499478,1195.1604344682137C1094.9970018614572,1406.9226781810457,1101.5972233447,1539.2640495776236,1080.3399339863754,1700.0706438329214C1059.0826446280507,1860.8772380882192,980.0566556643959,2083.345107305487,960,2160L 1920 2160 L 1920 -1080 Z" fill="url(&quot;#SvgjsLinearGradient1181&quot;)"></path><path d="M1200,-1080C1212.64685596154,-1005.9764358549387,1283.3072986907198,-795.6721391758036,1275.8811357692396,-635.858615129632C1268.4549728477593,-476.0450910834603,1153.0656771886559,-258.1099505223377,1155.4430224711189,-121.11885572296984C1157.8203677535819,15.872239076398074,1278.4413993113853,50.52629916304406,1290.1452074640174,186.08795366657557C1301.8490156166495,321.64960817010706,1254.7980463230347,518.6420950275091,1225.665871386911,692.2510712982194C1196.5336964507874,865.8600475689296,1116.7290576212906,1071.111105122889,1115.3521578472762,1227.7418112908372C1113.9752580732618,1384.3725174587853,1203.2964990507044,1476.658943521048,1217.404472742825,1632.0353083059085C1231.5124464349456,1787.411673090769,1202.9007454571374,2072.0058847176515,1200,2160L 1920 2160 L 1920 -1080 Z" fill="url(&quot;#SvgjsLinearGradient1182&quot;)"></path><path d="M1440,-1080C1429.455625232592,-981.7711874063043,1396.3153758359144,-664.0978880229393,1376.7337513955522,-490.62712443782596C1357.15212695519,-317.1563608527126,1311.0658804179393,-206.7321320721936,1322.510253357826,-39.175418489319725C1333.9546262977128,128.38129509355414,1406.738072495369,316.18881706257,1445.3999890348725,514.7131570594172C1484.0619055743762,713.2374970562644,1560.7795300310208,946.4351769834057,1554.4817525948474,1151.9706214917635C1548.183975158674,1357.5060660001213,1426.6936165169732,1579.9209276915249,1407.613324417832,1747.9258241095642C1388.5330323186909,1915.9307205276036,1434.6022207363053,2091.3209706849275,1440,2160L 1920 2160 L 1920 -1080 Z" fill="url(&quot;#SvgjsLinearGradient1183&quot;)"></path><path d="M1680,-1080C1666.3529502594859,-999.7918086499384,1602.8306557284216,-743.3642098838898,1598.117701556915,-598.7508518996306C1593.4047473854087,-454.13749391537135,1626.140298292601,-340.54419078325196,1651.7222749709613,-212.31985209444457C1677.3042516493215,-84.09551340563718,1751.7485512881562,65.11867519644431,1751.6095616270763,170.5951802332138C1751.4705719659964,276.0716852699833,1652.0191172804036,273.12814050877057,1650.8883370044816,420.5391781261724C1649.7575567285596,567.9502157435742,1730.1831331827448,904.5005365738749,1744.8248799715439,1055.0614059376248C1759.466626760343,1205.6222753013747,1770.5370497641854,1194.8027274025746,1738.7388177372766,1323.9043943086717C1706.9405857103677,1453.0060612147688,1563.825290766303,1690.3221397589855,1554.0354878100902,1829.6714073742069C1544.2456848538775,1969.0206749894282,1659.005914635015,2104.9452345623677,1680,2160L 1920 2160 L 1920 -1080 Z" fill="url(&quot;#SvgjsLinearGradient1184&quot;)"></path></g><defs><linearGradient x1="0.1" y1="0" x2="0" y2="1" id="SvgjsLinearGradient1177"><stop stop-color="#7e697a" offset="0"></stop><stop stop-color="#7e697d" offset="0"></stop></linearGradient><linearGradient x1="0.1" y1="0" x2="0" y2="1" id="SvgjsLinearGradient1178"><stop stop-color="#907a8c" offset="0"></stop><stop stop-color="#907a90" offset="0.125"></stop></linearGradient><linearGradient x1="0.1" y1="0" x2="0" y2="1" id="SvgjsLinearGradient1179"><stop stop-color="#a08d9d" offset="0"></stop><stop stop-color="#a08da0" offset="0.25"></stop></linearGradient><linearGradient x1="0.1" y1="0" x2="0" y2="1" id="SvgjsLinearGradient1180"><stop stop-color="#b1a1ae" offset="0"></stop><stop stop-color="#b1a1b1" offset="0.375"></stop></linearGradient><linearGradient x1="0.1" y1="0" x2="0" y2="1" id="SvgjsLinearGradient1181"><stop stop-color="#c1b4be" offset="0"></stop><stop stop-color="#c1b4c0" offset="0.5"></stop></linearGradient><linearGradient x1="0.1" y1="0" x2="0" y2="1" id="SvgjsLinearGradient1182"><stop stop-color="#d1c7cf" offset="0"></stop><stop stop-color="#d1c7d1" offset="0.625"></stop></linearGradient><linearGradient x1="0.1" y1="0" x2="0" y2="1" id="SvgjsLinearGradient1183"><stop stop-color="#e1dbe0" offset="0"></stop><stop stop-color="#e1dbe1" offset="0.75"></stop></linearGradient><linearGradient x1="0.1" y1="0" x2="0" y2="1" id="SvgjsLinearGradient1184"><stop stop-color="#f1eef0" offset="0"></stop><stop stop-color="#f1eef0" offset="0.875"></stop></linearGradient></defs></svg>